<svg width="16" height="38" viewBox="0 0 16 38" fill="none" xmlns="http://www.w3.org/2000/svg">
<path d="M8.74819 18.1296C10.0467 18.1072 8.61514 21.4801 8.06974 22.8989C7.32792 24.7541 6.18822 26.3607 4.75837 27.567C3.46395 28.6592 1.97633 29.4083 0.40175 29.7607C0.236185 34.8706 -0.208658 37.521 0.310763 37.4686C2.79749 37.2178 7.62486 35.3909 10.6992 31.5988C13.1827 28.4785 14.883 24.6377 15.6176 20.4881C15.6176 19.0618 15.6532 17.6392 15.6564 16.2129C15.6564 16.0771 15.6685 15.9417 15.6922 15.8087L15.5461 0.0859375H0.288095V18.1334C5.66735 18.0548 5.98876 18.1783 8.74819 18.1296Z" fill="white"/>
</svg>
