<svg width="25" height="25" viewBox="0 0 25 25" fill="none" xmlns="http://www.w3.org/2000/svg">
<path d="M24.1736 21.2495L19.4998 16.5766C19.2889 16.3656 19.0029 16.2485 18.7029 16.2485H17.9388C19.2326 14.5939 20.0014 12.5129 20.0014 10.249C20.0014 4.86364 15.637 0.5 10.2507 0.5C4.86438 0.5 0.5 4.86364 0.5 10.249C0.5 15.6345 4.86438 19.9981 10.2507 19.9981C12.5149 19.9981 14.5963 19.2294 16.2512 17.9358V18.6998C16.2512 18.9998 16.3683 19.2857 16.5793 19.4966L21.2531 24.1696C21.6937 24.6101 22.4063 24.6101 22.8423 24.1696L24.1689 22.8431C24.6096 22.4026 24.6096 21.6901 24.1736 21.2495ZM10.2507 16.2485C6.93641 16.2485 4.25027 13.5675 4.25027 10.249C4.25027 6.93531 6.93172 4.24963 10.2507 4.24963C13.565 4.24963 16.2512 6.93062 16.2512 10.249C16.2512 13.5628 13.5697 16.2485 10.2507 16.2485Z" fill="white"/>
</svg>
