<svg width="40" height="36" viewBox="0 0 40 36" fill="none" xmlns="http://www.w3.org/2000/svg">
<path d="M39.1642 5.63278C38.7041 3.41559 37.3487 1.66941 35.6277 1.07681C32.5084 0 20 0 20 0C20 0 7.49171 0 4.37226 1.07681C2.65129 1.6695 1.29587 3.41559 0.835839 5.63278C0 9.65156 0 18.0364 0 18.0364C0 18.0364 0 26.4212 0.835839 30.44C1.29587 32.6572 2.65129 34.3306 4.37226 34.9232C7.49171 36 20 36 20 36C20 36 32.5083 36 35.6277 34.9232C37.3487 34.3306 38.7041 32.6572 39.1642 30.44C40 26.4212 40 18.0364 40 18.0364C40 18.0364 40 9.65156 39.1642 5.63278ZM15.9091 25.6492V10.4236L26.3636 18.0366L15.9091 25.6492Z" fill="white"/>
</svg>
