<svg width="16" height="38" viewBox="0 0 16 38" fill="none" xmlns="http://www.w3.org/2000/svg">
<path d="M8.72079 18.4988C10.0193 18.4764 8.5877 21.8409 8.0423 23.2562C7.30048 25.1068 6.16084 26.7094 4.73099 27.9127C3.43689 29.0029 1.94912 29.7501 0.374349 30.1009C0.208784 35.1981 -0.23598 37.8457 0.283441 37.7934C2.77017 37.5395 7.59754 35.7172 10.6719 31.9345C13.1551 28.8232 14.8553 24.9932 15.5901 20.8551C15.5901 19.4324 15.6259 18.0096 15.6291 16.5869C15.6291 16.4514 15.641 16.3163 15.6648 16.1836L15.5187 0.5H0.260714V18.5025C5.64971 18.4279 5.9711 18.5511 8.72079 18.4988Z" fill="white"/>
</svg>
