<svg width="17" height="38" viewBox="0 0 17 38" fill="none" xmlns="http://www.w3.org/2000/svg">
<path d="M7.70766 19.7916C6.40911 19.814 7.83751 16.4308 8.38291 15.0342C9.12613 13.1835 10.2668 11.581 11.6975 10.3777C12.9897 9.287 14.4768 8.54079 16.0509 8.1932C16.2164 3.09229 16.6612 0.448482 16.1418 0.500761C13.655 0.750952 8.83091 2.57697 5.75333 6.35598C3.26685 9.46759 1.56333 13.2988 0.825327 17.4391C0.825327 18.8618 0.789617 20.2808 0.786371 21.7035C0.785982 21.8388 0.775117 21.9738 0.753906 22.1068L0.896748 37.7904H16.1547V19.7916C10.7787 19.8663 10.4541 19.7431 7.70766 19.7916Z" fill="white"/>
</svg>
