<svg width="31" height="25" viewBox="0 0 31 25" fill="none" xmlns="http://www.w3.org/2000/svg">
<path d="M28.4231 14.7128L30.9673 4.55659C31.151 3.82329 30.5367 3.125 29.7078 3.125H8.56847L8.07517 0.937012C7.95224 0.39165 7.4233 0 6.80971 0H1.29165C0.578275 0 -1.52498e-05 0.524658 -1.52498e-05 1.17188V1.95312C-1.52498e-05 2.60034 0.578275 3.125 1.29165 3.125H5.05272L8.83343 19.8943C7.92894 20.3662 7.31943 21.2511 7.31943 22.2656C7.31943 23.7758 8.6688 25 10.3333 25C11.9979 25 13.3472 23.7758 13.3472 22.2656C13.3472 21.5003 13.0002 20.8088 12.4418 20.3125H23.7248C23.1664 20.8088 22.8194 21.5003 22.8194 22.2656C22.8194 23.7758 24.1688 25 25.8333 25C27.4979 25 28.8472 23.7758 28.8472 22.2656C28.8472 21.183 28.1536 20.2475 27.1477 19.8044L27.4446 18.6191C27.6283 17.8858 27.0139 17.1875 26.185 17.1875H11.7389L11.3867 15.625H27.1636C27.7667 15.625 28.2895 15.2464 28.4231 14.7128Z" fill="white"/>
</svg>
