<svg width="16" height="39" viewBox="0 0 16 39" fill="none" xmlns="http://www.w3.org/2000/svg">
<path d="M7.1585 20.1484C5.85995 20.1709 7.28838 16.7793 7.83377 15.3792C8.57559 13.5239 9.71522 11.9173 11.1451 10.711C12.4395 9.61882 13.9272 8.86974 15.5018 8.51735C15.6673 3.40746 16.112 0.753314 15.5926 0.809467C13.1059 1.06028 8.2785 2.88711 5.20417 6.67929C2.72118 9.79941 1.02207 13.6404 0.289184 17.79C0.289184 19.2125 0.253436 20.6388 0.25019 22.0651C0.249648 22.2007 0.238833 22.336 0.217773 22.4694L0.360595 38.1921H15.6186V20.1484C10.2264 20.2233 9.90819 20.0998 7.1585 20.1484Z" fill="white"/>
</svg>
