<svg width="17" height="38" viewBox="0 0 17 38" fill="none" xmlns="http://www.w3.org/2000/svg">
<path d="M9.43563 18.4988C10.7342 18.4764 9.30254 21.8409 8.75715 23.2562C8.01533 25.1068 6.87568 26.7094 5.44583 27.9127C4.15173 29.0029 2.66396 29.7501 1.08919 30.1009C0.923628 35.1981 0.478864 37.8457 0.998285 37.7934C3.48501 37.5395 8.31239 35.7172 11.3867 31.9345C13.87 28.8232 15.5702 24.9932 16.305 20.8551C16.305 19.4324 16.3407 18.0096 16.3439 16.5869C16.3439 16.4514 16.3559 16.3163 16.3796 16.1836L16.2336 0.5H0.975558V18.5025C6.36455 18.4279 6.68594 18.5511 9.43563 18.4988Z" fill="white"/>
</svg>
