<svg width="17" height="39" viewBox="0 0 17 39" fill="none" xmlns="http://www.w3.org/2000/svg">
<path d="M7.44527 20.1484C6.14672 20.1709 7.57515 16.7793 8.12055 15.3792C8.86237 13.5239 10.002 11.9173 11.4318 10.711C12.7263 9.61882 14.214 8.86974 15.7885 8.51735C15.9541 3.40746 16.3988 0.753314 15.8794 0.809467C13.3926 1.06028 8.56527 2.88711 5.49094 6.67929C3.0056 9.79854 1.3042 13.6397 0.569458 17.79C0.569458 19.2125 0.533789 20.6388 0.530542 22.0651C0.530001 22.2007 0.519106 22.336 0.498047 22.4694L0.640869 38.1921H15.8989V20.1484C10.5131 20.2233 10.195 20.0998 7.44527 20.1484Z" fill="white"/>
</svg>
