<svg width="16" height="38" viewBox="0 0 16 38" fill="none" xmlns="http://www.w3.org/2000/svg">
<path d="M6.98242 19.7916C5.68386 19.814 7.11227 16.4308 7.65766 15.0342C8.40088 13.1835 9.54157 11.581 10.9722 10.3777C12.2645 9.287 13.7515 8.54079 15.3256 8.1932C15.4912 3.09229 15.9359 0.448482 15.4165 0.500761C12.9298 0.750952 8.10566 2.57697 5.02809 6.35598C2.54397 9.46845 0.842721 13.2996 0.106577 17.4391C0.106577 18.8618 0.070866 20.2808 0.0676196 21.7035C0.0672305 21.8388 0.0563668 21.9738 0.0351562 22.1068L0.177998 37.7904H15.436V19.7916C10.06 19.8663 9.74184 19.7431 6.98242 19.7916Z" fill="white"/>
</svg>
