<svg width="17" height="38" viewBox="0 0 17 38" fill="none" xmlns="http://www.w3.org/2000/svg">
<path d="M9.4512 18.1296C10.7497 18.1072 9.31815 21.4801 8.77275 22.8989C8.03093 24.7541 6.89123 26.3607 5.46138 27.567C4.16696 28.6592 2.67934 29.4083 1.10476 29.7607C0.939195 34.8706 0.494511 37.521 1.01393 37.4686C3.50066 37.2178 8.32803 35.3909 11.4024 31.5988C13.8858 28.4785 15.586 24.6377 16.3206 20.4881C16.3206 19.0618 16.3562 17.6392 16.3594 16.2129C16.3594 16.0771 16.3715 15.9417 16.3953 15.8087L16.2491 0.0859375H0.991106V18.1334C6.37361 18.0548 6.69826 18.1783 9.4512 18.1296Z" fill="white"/>
</svg>
