<svg width="40" height="36" viewBox="0 0 40 36" fill="none" xmlns="http://www.w3.org/2000/svg">
<path d="M35.8884 8.97184C35.9138 9.36557 35.9138 9.75939 35.9138 10.1531C35.9138 22.1624 27.6651 36 12.5889 36C7.94417 36 3.62947 34.5093 0 31.9219C0.659924 32.0062 1.29438 32.0344 1.9797 32.0344C5.81213 32.0344 9.34011 30.6001 12.1574 28.1532C8.55331 28.0688 5.53299 25.4531 4.49236 21.8531C5.00002 21.9374 5.5076 21.9937 6.04065 21.9937C6.77667 21.9937 7.51276 21.8812 8.198 21.6844C4.44166 20.8406 1.6243 17.1844 1.6243 12.7687V12.6563C2.71564 13.3313 3.98478 13.7531 5.32986 13.8093C3.12173 12.1781 1.67508 9.39371 1.67508 6.24369C1.67508 4.55622 2.0811 3.00934 2.79181 1.65933C6.82737 7.17183 12.8934 10.7718 19.6954 11.1656C19.5685 10.4906 19.4923 9.78753 19.4923 9.08439C19.4923 4.07808 23.1472 0 27.6903 0C30.0507 0 32.1827 1.09687 33.6802 2.86875C35.533 2.47502 37.3096 1.71561 38.8833 0.675005C38.2741 2.78443 36.9797 4.5563 35.2792 5.68123C36.929 5.48445 38.528 4.97809 40 4.27503C38.8834 6.07496 37.4874 7.67802 35.8884 8.97184Z" fill="white"/>
</svg>
